<svg width="1080.0447" height="1080" xmlns="http://www.w3.org/2000/svg" version="1.1">

 <g>
  <title>Layer 1</title>
  <g id="layer1"  >
   <g id="g2">
    <path stroke-width="14.2397" stroke="#ff6600" fill="#ff0000" d="m319.25411,50.11985a312.17993,312.17993 0 0 0 -220.74223,91.43762a312.17993,312.17993 0 0 0 0,441.49183l441.48443,441.49179l441.49182,-441.49179a312.17993,312.17993 0 0 0 0,-441.49183a312.17993,312.17993 0 0 0 -441.49182,0a312.17993,312.17993 0 0 0 -220.7422,-91.43762zm149.54076,233.93621l142.40289,0l0,142.3955l142.39564,0l0,142.39564l-142.39564,0l0,142.39564l-142.40289,0l0,-142.39564l-142.39559,0l0,-142.39564l142.39559,0l0,-142.3955z" id="path1"/>
   </g>
  </g>
 </g>
</svg>
